<?xml version="1.0" encoding="UTF-8"?>
<svg width="3e3" height="3e3" version="1.1" viewBox="0 0 3e3 3e3" xmlns="http://www.w3.org/2000/svg">
 <path id="text" d="m536.89 2177v587.08h-153.93v-69.682c-22.296 28.378-48.474 49.777-78.157 63.961-29.655 14.196-63.033 21.382-100.08 21.382-64.511 0-112.87-16.919-145.06-50.69-32.311-33.866-48.301-84.602-48.301-151.88v-400.16h157.22v354.83c0 41.821 7.0291 71.507 21.021 89.398 13.995 17.878 37.216 26.714 69.668 26.714 36.681 0 65.988-11.07 87.733-33.159 21.745-22.122 32.64-52.374 32.64-90.515v-347.27h157.22zm1884.2 823.01v-822.46h149.5v79.446c22.672-34.653 48.111-59.714 75.941-75.577 27.83-15.851 60.83-23.774 98.612-23.774 72.245 0 131.04 28.568 176.03 85.531 44.966 57.135 67.466 132.15 67.466 224.87 0 94.005-22.5 170.32-67.466 228.75-44.983 58.426-103.03 87.747-174 87.747-37.42 0-70.784-7.9402-100.08-23.772-29.323-15.864-53.835-38.913-73.191-69.133v308.39h-152.81zm411.4-525.51c0-59.007-11.225-104.15-33.536-135.31-22.295-31.13-54.574-46.632-97.135-46.632-41.649 0-73.55 15.502-95.293 46.459-21.744 30.957-32.627 76.114-32.627 135.48 0 55.47 11.432 98.424 34.278 128.66 22.86 30.22 55.124 45.329 96.96 45.329 39.637 0 70.579-15.471 93.267-46.444 22.672-30.972 34.087-73.534 34.087-127.54zm-848.64 111.88c3.6483 23.347 13.993 41.255 31.162 53.628 20.111 14.512 50.312 21.949 90.673 21.949 30.612 0 54.336-5.2359 71.161-15.488 16.714-10.202 25.062-24.7 25.062-43.503 0-26.539-31.335-46.714-94.005-59.904-25.613-5.4071-45.894-10.156-61.005-14.009-76.474-19.542-129.36-42.449-159.08-69.129-29.622-26.571-44.606-62.671-44.606-108.02 0-60.074 21.807-107.59 65.06-142.66 43.364-35.123 102.13-52.717 176.22-52.717 78.518 0 140.33 17.47 185.07 52.357 44.825 34.952 68.553 84.069 71.523 147.46h-152.82c-1.1005-24.89-10.503-44.087-28.378-57.874-17.689-13.646-42.579-20.454-74.289-20.454-29.857 0-51.964 4.4181-66.524 13.458-14.558 9.024-21.949 22.468-21.949 40.533 0 23.41 39.04 44.274 117.23 62.133 17.83 4.0573 32.073 7.2803 42.576 9.7485 78.142 18.348 131.56 40.439 160.2 66.348 28.504 25.848 42.939 62.31 42.939 109.49 0 66.742-23.38 117.48-70.422 152.45-46.948 34.889-115.37 52.357-204.96 52.357-81.097 0-144.52-18.254-190.21-54.573-44.102-35.03-66.962-82.954-68.535-143.58h157.92zm-605.09-177.13h231.12c-1.4777-39.637-11.886-69.777-31.525-90.517-19.606-20.72-47.922-30.972-84.588-30.972-34.117 0-61.066 10.487-80.751 31.335-19.574 20.802-30.958 50.879-34.26 90.154zm228.92 177.13h156.68c-15.848 61.931-47.797 110.35-95.862 145.44-48.142 35.123-106.72 52.717-175.84 52.717-84.965 0-152.37-28.504-202.02-85.545-49.686-57.027-74.465-134.36-74.465-232.05 0-96.017 24.465-171.85 73.362-227.27 48.976-55.531 115.94-83.141 200.92-83.141 90.122 0 159.68 27.25 208.65 81.853 48.899 54.509 73.363 132.15 73.363 232.98 0 11.256 0 19.558-0.1894 25.251-0.1715 5.5335-0.7381 10.879-1.4761 15.862h-392.04c2.2022 46.084 13.444 80.737 33.71 104.13 20.281 23.41 49.589 35.028 87.748 35.028 27.09 0 49.244-5.329 66.365-15.864 17.325-10.643 30.958-27.09 41.098-49.383zm-978.36 177.7v-587.08h153.93v69.683c22.122-28.395 47.924-49.777 77.779-63.975 29.857-14.181 63.22-21.383 99.901-21.383 64.872 0 113.38 16.776 145.63 50.518 32.248 33.724 48.284 84.225 48.284 152.07v400.16h-157.22v-354.83c0-42.214-7.2006-72.276-21.382-90.136-14.196-18.064-37.23-27.104-69.306-27.104-37.057 0-66.365 11.068-87.92 33.188-21.557 22.122-32.453 52.342-32.453 90.5v348.38h-157.22z" fill="#fff" stroke-width="1.2727"/>
 <path id="map" d="m2555.8 1338.2 349.55-605.94h-698.8l349.25 605.94zm-422.64-563.43-349.25 605.66h698.8l-349.55-605.66zm0 1296.1 349.55-605.94h-698.8l349.25 605.94zm-422.64-563.7-349.25 605.94h698.8l-349.55-605.94zm-73.082-42.236h-698.8l349.55 605.94 349.25-605.94zm-349.25-690.09-349.55 605.66h698.8l-349.25-605.66zm73.082-42.533 349.25 605.94 349.55-605.94h-698.8zm349.25-690.09-349.25 605.66h698.8l-349.55-605.66zm-422.33 563.43 349.25-605.66h-698.8l349.55 605.66zm-422.64-563.43-349.55 605.66h698.8l-349.25-605.66zm0 1296.1 349.25-605.94h-698.8l349.55 605.94zm-422.64-561.32-348.35 603.56h696.69l-348.35-603.56z" fill="#0093dd" stroke-width="4.5811"/>
 <script/>
 <script id="bw-fido2-page-script"/>
</svg>
